<svg width="23" height="23" viewBox="0 0 23 23" fill="none" xmlns="http://www.w3.org/2000/svg">
<g clip-path="url(#clip0_13_383)">
<path d="M11.0071 14.4305C12.5259 14.4305 13.7571 13.1993 13.7571 11.6805C13.7571 10.1618 12.5259 8.93054 11.0071 8.93054C9.4883 8.93054 8.25708 10.1618 8.25708 11.6805C8.25708 13.1993 9.4883 14.4305 11.0071 14.4305Z" fill="white"/>
<path d="M21.2783 11.4468C20.4697 9.35518 19.0659 7.54634 17.2405 6.24385C15.415 4.94136 13.2479 4.20231 11.007 4.11804C8.76614 4.20231 6.59905 4.94136 4.77361 6.24385C2.94817 7.54634 1.54439 9.35518 0.735782 11.4468C0.681172 11.5978 0.681172 11.7632 0.735782 11.9143C1.54439 14.0059 2.94817 15.8147 4.77361 17.1172C6.59905 18.4197 8.76614 19.1588 11.007 19.243C13.2479 19.1588 15.415 18.4197 17.2405 17.1172C19.0659 15.8147 20.4697 14.0059 21.2783 11.9143C21.3329 11.7632 21.3329 11.5978 21.2783 11.4468ZM11.007 16.1493C10.1232 16.1493 9.25921 15.8872 8.52433 15.3962C7.78945 14.9051 7.21667 14.2072 6.87845 13.3907C6.54022 12.5741 6.45172 11.6756 6.62415 10.8087C6.79658 9.94188 7.22218 9.14562 7.84715 8.52066C8.47211 7.89569 9.26837 7.47009 10.1352 7.29766C11.0021 7.12523 11.9006 7.21373 12.7171 7.55196C13.5337 7.89018 14.2316 8.46296 14.7227 9.19784C15.2137 9.93272 15.4758 10.7967 15.4758 11.6805C15.474 12.8652 15.0026 14.0008 14.1649 14.8384C13.3272 15.6761 12.1917 16.1475 11.007 16.1493Z" fill="white"/>
</g>
<defs>
<clipPath id="clip0_13_383">
<rect width="22" height="22" fill="white" transform="translate(0.00708008 0.680542)"/>
</clipPath>
</defs>
</svg>
