<svg width="23" height="23" viewBox="0 0 23 23" fill="none" xmlns="http://www.w3.org/2000/svg">
<g clip-path="url(#clip0_13_1303)">
<path d="M11.0071 14.4307C12.5259 14.4307 13.7571 13.1994 13.7571 11.6807C13.7571 10.1619 12.5259 8.93066 11.0071 8.93066C9.4883 8.93066 8.25708 10.1619 8.25708 11.6807C8.25708 13.1994 9.4883 14.4307 11.0071 14.4307Z" fill="white"/>
<path d="M21.2783 11.4469C20.4697 9.3553 19.0659 7.54646 17.2405 6.24397C15.415 4.94148 13.2479 4.20243 11.007 4.11816C8.76614 4.20243 6.59905 4.94148 4.77361 6.24397C2.94817 7.54646 1.54439 9.3553 0.735782 11.4469C0.681172 11.598 0.681172 11.7634 0.735782 11.9144C1.54439 14.006 2.94817 15.8149 4.77361 17.1174C6.59905 18.4198 8.76614 19.1589 11.007 19.2432C13.2479 19.1589 15.415 18.4198 17.2405 17.1174C19.0659 15.8149 20.4697 14.006 21.2783 11.9144C21.3329 11.7634 21.3329 11.598 21.2783 11.4469ZM11.007 16.1494C10.1232 16.1494 9.25921 15.8873 8.52433 15.3963C7.78945 14.9053 7.21667 14.2073 6.87845 13.3908C6.54022 12.5742 6.45172 11.6757 6.62415 10.8089C6.79658 9.942 7.22218 9.14575 7.84715 8.52078C8.47211 7.89581 9.26837 7.47021 10.1352 7.29778C11.0021 7.12535 11.9006 7.21385 12.7171 7.55208C13.5337 7.89031 14.2316 8.46308 14.7227 9.19796C15.2137 9.93284 15.4758 10.7968 15.4758 11.6807C15.474 12.8653 15.0026 14.0009 14.1649 14.8385C13.3272 15.6762 12.1917 16.1476 11.007 16.1494Z" fill="white"/>
</g>
<defs>
<clipPath id="clip0_13_1303">
<rect width="22" height="22" fill="white" transform="translate(0.00708008 0.680664)"/>
</clipPath>
</defs>
</svg>
