<svg id="Layer_1" data-name="Layer 1" xmlns="http://www.w3.org/2000/svg" viewBox="0 0 100 100"><defs><style>.cls-1,.cls-2{fill:#ff6737;}.cls-2{fill-rule:evenodd;}</style></defs><path class="cls-1" d="M70.21,28.13l1,1.91s1.62-2.57-1-1.91m-50,64.33V37.57a35.07,35.07,0,0,1,1.62-11.11,22.56,22.56,0,0,1,4.87-8.35,36.23,36.23,0,0,1,6.78-5.77A29.93,29.93,0,0,1,41,8.86a21.75,21.75,0,0,1,2.16-.6,20,20,0,0,1,2.17-.36q.6-.12,1.08-.18a8.77,8.77,0,0,1,1.08-.06,4.19,4.19,0,0,1,1-.12h1A37.56,37.56,0,0,1,60.69,9a20.93,20.93,0,0,1,8.17,4.63A40.67,40.67,0,0,1,74.44,20,26.66,26.66,0,0,1,78,26.88q.48,1.44.84,2.88a18,18,0,0,1,.48,2.88c.16,1,.28,1.87.36,2.71s.12,1.66.12,2.46,0,1.66-.12,2.58-.2,1.86-.36,2.82a18.15,18.15,0,0,1-.48,2.89,20.92,20.92,0,0,1-5.17,9.82C64.34,66,45,67.43,34.39,61.61V52.7c.43.26,5.19-4,11.84-5.8,8.21-2.19,18.28-2,21.7-8.56,1.4-2.7,3.57-6.54,2.57-9s-8.72-1.66-13.61-3.71c-1.3-.54-3-3.53-3.61-4.18-3.29-3.5-14.21.3-12.92,2S50.21,30,50,37.88s-9.41,7-12.47,2a39.2,39.2,0,0,1-4.29-11.52,17.05,17.05,0,0,0-1.67,4,28,28,0,0,0-.9,7.45V92.46Z"/><path class="cls-2" d="M49.68,24.84A1.71,1.71,0,1,1,48,26.55a1.7,1.7,0,0,1,1.71-1.71"/></svg>