<svg width="16" height="16" viewBox="0 0 16 16" fill="none" xmlns="http://www.w3.org/2000/svg">
<path d="M11.6724 4.32733C11.1276 3.7776 10.4663 3.35728 9.73725 3.09739C9.00822 2.83751 8.23013 2.7447 7.46043 2.82583C5.07493 3.06633 3.11193 5.00333 2.84543 7.38883C2.48793 10.5413 4.92543 13.1998 7.99993 13.1998C8.9815 13.1998 9.94292 12.9213 10.7725 12.3966C11.6021 11.872 12.2658 11.1227 12.6864 10.2358C12.8944 9.80033 12.5824 9.29983 12.1014 9.29983C11.8609 9.29983 11.6334 9.42983 11.5294 9.64433C11.152 10.4562 10.5066 11.1133 9.70158 11.5052C8.89659 11.897 7.98121 11.9996 7.10943 11.7958C5.66643 11.4773 4.50293 10.3008 4.19743 8.85783C4.06901 8.2873 4.0705 7.6952 4.20178 7.12532C4.33306 6.55544 4.59079 6.02237 4.95588 5.56553C5.32098 5.10869 5.78411 4.73978 6.31101 4.48607C6.83792 4.23237 7.41512 4.10037 7.99993 4.09983C9.07893 4.09983 10.0409 4.54833 10.7429 5.25683L9.76143 6.23833C9.35193 6.64783 9.63793 7.34983 10.2164 7.34983H12.5499C12.9074 7.34983 13.1999 7.05733 13.1999 6.69983V4.36633C13.1999 3.78783 12.4979 3.49533 12.0884 3.90483L11.6724 4.32733Z" fill="white"/>
</svg>
