<svg id="Layer_1" data-name="Layer 1" xmlns="http://www.w3.org/2000/svg" viewBox="0 0 1080 1080"><defs><style>.cls-1{fill:#ff6737;}.cls-2{fill:#fe9f00;}.cls-3{fill:#fed300;}.cls-4,.cls-5{fill:#2164c9;}.cls-5{fill-rule:evenodd;}</style></defs><path class="cls-1" d="M539.3,463.15h40.8l30.2,69.77h1.43l37.13-73.24h3.87l36.93,73.24h1.43l30.39-69.77h40.81L699.86,609.63h-5.1l-43.25-85.89h-1.43l-43.46,85.89h-4.89Z"/><path class="cls-1" d="M773.5,463h31.21V609.63H773.5Z"/><path class="cls-1" d="M825.72,500.68H831l19.38,20.61h.81c8.57-15.1,24.48-23.26,42-23.26,26.93,0,48.55,18.77,48.55,47.74v63.86h-31V552.91c0-16.93-11.63-29-26.93-29s-26.93,11.83-26.93,29v56.72H825.72Z"/><path class="cls-2" d="M763.66,426.31a5.07,5.07,0,0,1-4-3.3l-.35-.9v-1.86a14,14,0,0,1,1.36-2.5,4.79,4.79,0,0,1,5.23-1.58,4.86,4.86,0,0,1,3.77,4.22,13.07,13.07,0,0,1-.1,2.41l-.47.9A5.14,5.14,0,0,1,763.66,426.31Z"/><path class="cls-2" d="M814.44,426.32q-3.06,10.41-6.12,20.82a.81.81,0,0,1-.1.21H789.05q0-3.66,0-7.32c1.13.56,2.26,1.1,3.37,1.69a1.73,1.73,0,0,0,2-.09,1.84,1.84,0,0,0,.66-1.87,26.48,26.48,0,0,0-.49-2.66,1.36,1.36,0,0,1,.47-1.53,21.35,21.35,0,0,0,2.32-2.34,1.66,1.66,0,0,0-1.15-2.74c-1.1-.18-2.21-.32-3.32-.47a.92.92,0,0,1-.79-.56c-.42-.92-.89-1.81-1.34-2.71a1.89,1.89,0,0,0-1.73-1.15V416a14.55,14.55,0,0,0,1.47-.25A5.75,5.75,0,0,0,793.2,414l7.06,12,7.68-3,.6-.19c.12.21.25.42.35.64A5.09,5.09,0,0,0,814.44,426.32Z"/><path class="cls-3" d="M789,440v7.32H769.87Q768,440.8,766,434.25c-.78-2.65-1.56-5.29-2.35-7.94a5.14,5.14,0,0,0,5.4-2.61l.47-.9,7.74,3,.57.21.84-1.4,6-10.21a2.83,2.83,0,0,1,.2-.28,2.94,2.94,0,0,1,.47.31,5.51,5.51,0,0,0,3.71,1.55h0v9.65h0a1.81,1.81,0,0,0-1.63,1c-.49,1-1,1.92-1.49,2.89a.83.83,0,0,1-.75.51c-1.11.13-2.21.3-3.32.47a1.76,1.76,0,0,0-.87,3.13c.78.79,1.61,1.52,2.38,2.3a.94.94,0,0,1,.2.69c-.15,1.05-.34,2.09-.54,3.13a1.71,1.71,0,0,0,1.33,2.15,2.35,2.35,0,0,0,1.32-.21c1.14-.52,2.25-1.11,3.37-1.67Z"/><path class="cls-1" d="M789.05,447.35h19.17c0,1.78,0,3.56,0,5.35a1.64,1.64,0,0,1-1.64,1.62c-5.85,0-11.69,0-17.54,0v-7Z"/><path class="cls-2" d="M789.05,447.35v7l-7.37,0h-9.81a1.77,1.77,0,0,1-2-2c0-1.66,0-3.33,0-5Z"/><path class="cls-2" d="M814.44,426.32a5.09,5.09,0,0,1-5.55-2.89c-.1-.22-.23-.43-.35-.64a17.76,17.76,0,0,1-.08-2.41,5.13,5.13,0,0,1,4.07-4.31,5.21,5.21,0,1,1,1.91,10.25Z"/><path class="cls-2" d="M793.2,414a5.75,5.75,0,0,1-2.68,1.73,14.55,14.55,0,0,1-1.47.25h0V405.5a5.23,5.23,0,0,1,4.72,7.47C793.59,413.31,793.39,413.64,793.2,414Z"/><path class="cls-2" d="M789.05,405.5V416a5.51,5.51,0,0,1-3.71-1.55,2.94,2.94,0,0,0-.47-.31,4,4,0,0,0-.23-.57,5.16,5.16,0,0,1,2.18-7.5A10.67,10.67,0,0,1,789.05,405.5Z"/><path class="cls-1" d="M789.05,425.6a1.89,1.89,0,0,1,1.73,1.15c.45.9.92,1.79,1.34,2.71a.92.92,0,0,0,.79.56c1.11.15,2.22.29,3.32.47a1.66,1.66,0,0,1,1.15,2.74,21.35,21.35,0,0,1-2.32,2.34,1.36,1.36,0,0,0-.47,1.53,26.48,26.48,0,0,1,.49,2.66,1.84,1.84,0,0,1-.66,1.87,1.73,1.73,0,0,1-2,.09c-1.11-.59-2.24-1.13-3.37-1.69h0V425.61Z"/><path class="cls-2" d="M789.05,425.61V440c-1.12.56-2.23,1.15-3.37,1.67a2.35,2.35,0,0,1-1.32.21,1.71,1.71,0,0,1-1.33-2.15c.2-1,.39-2.08.54-3.13a.94.94,0,0,0-.2-.69c-.77-.78-1.6-1.51-2.38-2.3a1.76,1.76,0,0,1,.87-3.13c1.11-.17,2.21-.34,3.32-.47a.83.83,0,0,0,.75-.51c.48-1,1-1.92,1.49-2.89A1.81,1.81,0,0,1,789.05,425.61Z"/><path class="cls-4" d="M442.64,426.81h28.74v36.08H527v26.3H497.61l-28.46-13.77,2.23,24.49v42.68c0,29,29.68,37.14,53.2,36.72v30.35c-35.34,0-81.94-6.83-81.94-53.92Z"/><path class="cls-5" d="M495.32,514.65a5.65,5.65,0,1,1-5.65,5.65,5.65,5.65,0,0,1,5.65-5.65"/><path class="cls-5" d="M535.74,514.65a5.65,5.65,0,1,1-5.65,5.65,5.65,5.65,0,0,1,5.65-5.65"/><path class="cls-5" d="M524.35,548.54c-1.3,1.21-4.05,2.19-7.26.52-1.49-.78-1.13-2.7-1.11-4.36,0,0,3-2.62,3.58-4,.78-1.77-9.69-1.78-8.72,0a18.89,18.89,0,0,0,3.95,4.08c-.22,2,.27,3.18-1.26,4.08-3.8,1.9-6.09,1-7.51-.35-2.33-2.16-2.58-6.28-3.07-6.28-.28,0-.4.74-.4.74a7.94,7.94,0,0,0,3.95,7.64c2.83,1.51,6.89,1.12,8.65-1.55,1.74,2.65,5.86,3.06,8.67,1.58a7.93,7.93,0,0,0,4-7.67s-.12-.74-.4-.74c-.49,0-.74,4.12-3.08,6.28"/><path class="cls-5" d="M459.8,532.22l33.85,5.8a.78.78,0,0,1,.63.89h0a.77.77,0,0,1-.89.63l-33.85-5.8a.76.76,0,0,1-.63-.89h0a.76.76,0,0,1,.89-.63Z"/><path class="cls-5" d="M457.23,540.5l34.33,1a.77.77,0,0,1,.75.8h0a.78.78,0,0,1-.79.75l-34.33-1a.78.78,0,0,1,0-1.55Z"/><path class="cls-5" d="M459.48,549.57l34-4.68a.77.77,0,0,1,.21,1.53l-34,4.68a.77.77,0,1,1-.21-1.53Z"/><path class="cls-5" d="M459.8,532.22l11.58,2v1.57l-11.84-2a.76.76,0,0,1-.63-.89h0a.76.76,0,0,1,.89-.63"/><path class="cls-5" d="M457.23,540.5l14.17.41v1.55l-14.21-.41a.78.78,0,0,1,0-1.55"/><path class="cls-5" d="M459.48,549.57l12.28-1.69c.06.5.13,1,.22,1.53l-12.29,1.69a.77.77,0,1,1-.21-1.53"/><path class="cls-4" d="M441,541.43c.63.52,0,3.76,0,4.57a76.3,76.3,0,0,1-3.31,18.72,54.93,54.93,0,0,1-8.85,16.21c-.76,1-1.55,2-2.36,3a79.87,79.87,0,0,1-14.64,13.43c-10.26,7.44-22.61,11-35.11,12.2A89,89,0,0,1,338,605a70.21,70.21,0,0,1-24.2-15.08,67.88,67.88,0,0,1-16.42-23.45A74.62,74.62,0,0,1,292,537.61q0-16.73,4.48-29.58a59.52,59.52,0,0,1,13.44-22.1,94.21,94.21,0,0,1,18.81-15.23A74.5,74.5,0,0,1,349.37,462c.79-.19,1.54-.34,2.23-.44a21.65,21.65,0,0,0,2.24-.45,15.93,15.93,0,0,0,2.25-.15c.69-.1,1.44-.25,2.24-.44,1.59-.21,3.14-.36,4.62-.45s2.94-.15,4.34-.15a73.8,73.8,0,0,1,22.85,3.43,64.44,64.44,0,0,1,19.56,10.31,108.14,108.14,0,0,1,15.68,15.23,117.37,117.37,0,0,1,12.4,17.92L338.91,560.3l-11.65-20.9,70.49-40a7.72,7.72,0,0,1-1.19-.74,5.45,5.45,0,0,1-1.2-1.35c-.39-.4-.85-.89-1.34-1.49s-1-1.19-1.64-1.79q-.9-.6-1.95-1.35a14.51,14.51,0,0,1-1.94-1.64c-.79-.39-1.59-.85-2.39-1.35a17.62,17.62,0,0,0-2.68-1.34,23.63,23.63,0,0,0-7-2.09,63.93,63.93,0,0,0-9.11-.59,47.17,47.17,0,0,0-20.46,4.18A38.82,38.82,0,0,0,332,502.06a60.47,60.47,0,0,0-9,17,58.21,58.21,0,0,0-3,18.52v.9a44.78,44.78,0,0,0,.78,8.47,43.81,43.81,0,0,0,2.35,8.1,55.67,55.67,0,0,0,9.11,15.09C343.06,583,361.43,585.41,377,582.05a58.55,58.55,0,0,0,23.4-10.85,34.77,34.77,0,0,0,12.06-18.15,48.15,48.15,0,0,0,1.73-12.75V540l16,.93h.42l7.64.37C438.73,541.32,440.57,541.1,441,541.43Z"/><path class="cls-4" d="M264.51,512l2.64,4.81s4.09-6.49-2.64-4.81M138.2,674.5V535.81a88.69,88.69,0,0,1,4.09-28.07,57,57,0,0,1,12.29-21.09,90.55,90.55,0,0,1,17.15-14.57,75.47,75.47,0,0,1,19-8.8,55.53,55.53,0,0,1,5.46-1.51,49.34,49.34,0,0,1,5.46-.91c1-.21,1.92-.36,2.73-.46a22.44,22.44,0,0,1,2.73-.15,10.73,10.73,0,0,1,2.58-.3h2.58q16.08,0,28.22,3.79a53,53,0,0,1,20.64,11.68,103,103,0,0,1,14.11,15.93,66.4,66.4,0,0,1,9,17.45q1.21,3.65,2.13,7.29a45,45,0,0,1,1.21,7.28q.62,3.64.91,6.83c.21,2.12.31,4.2.31,6.22s-.1,4.2-.31,6.52-.5,4.71-.91,7.14a45.14,45.14,0,0,1-1.21,7.28c-2.46,9.82-6,17.23-13.06,24.83-23.53,25.46-72.41,29.08-99.23,14.36v-22.5c1.11.66,13.13-10.17,29.93-14.65,20.75-5.53,46.19-5,54.82-21.64,3.53-6.82,9-16.51,6.49-22.68-2.63-6.42-22-4.2-34.37-9.38-3.28-1.37-7.6-8.93-9.14-10.56-8.29-8.85-35.89.76-32.62,5S214,516.7,213.44,536.6s-23.77,17.7-31.51,5c-5.34-8.77-8.43-18.86-10.85-29.1a43.67,43.67,0,0,0-4.21,10,70.84,70.84,0,0,0-2.27,18.82V674.5Z"/><path class="cls-5" d="M212.65,503.64a4.33,4.33,0,1,1-4.33,4.33,4.32,4.32,0,0,1,4.33-4.33"/></svg>