<svg width="216" height="78" viewBox="0 0 216 78" fill="none" xmlns="http://www.w3.org/2000/svg">
<path d="M107.818 18.2389H118.436L126.295 36.3791H126.667L136.33 17.3367H137.337L146.948 36.3791H147.32L155.229 18.2389H165.849L149.602 56.3237H148.275L137.02 33.9923H136.647L125.337 56.3237H124.065L107.818 18.2389Z" fill="#FF6737"/>
<path d="M168.766 18.2H176.888V56.3238H168.766V18.2Z" fill="#FF6737"/>
<path d="M182.356 27.9969H183.73L188.774 33.3555H188.984C191.215 29.4295 195.355 27.3079 199.914 27.3079C206.923 27.3079 212.549 32.1881 212.549 39.7203V56.3239H204.482V41.5767C204.482 37.1749 201.455 34.0367 197.473 34.0367C193.492 34.0367 190.465 37.1125 190.465 41.5767V56.3239H182.356V27.9969Z" fill="#FF6737"/>
<path d="M166.206 8.66047C165.971 8.62431 165.75 8.52551 165.567 8.37449C165.384 8.22348 165.245 8.02586 165.165 7.80247L165.073 7.56847V7.08487C165.169 6.85676 165.288 6.63896 165.427 6.43487C165.585 6.23596 165.8 6.09001 166.044 6.01659C166.287 5.94317 166.547 5.94578 166.788 6.02407C167.046 6.08172 167.279 6.21852 167.455 6.4153C167.631 6.61207 167.741 6.85895 167.77 7.12128C167.78 7.3305 167.772 7.54025 167.744 7.74787L167.621 7.98187C167.487 8.22964 167.278 8.42867 167.024 8.55055C166.769 8.67242 166.483 8.71089 166.206 8.66047Z" fill="#FE9F00"/>
<path d="M179.421 8.66316C178.89 10.4676 178.359 12.272 177.828 14.0764C177.822 14.0957 177.813 14.1141 177.802 14.131H172.813C172.813 13.4966 172.813 12.8622 172.813 12.2278C173.107 12.3734 173.401 12.5138 173.69 12.6672C173.768 12.7176 173.861 12.7425 173.954 12.7383C174.047 12.7341 174.137 12.7011 174.21 12.6438C174.283 12.5876 174.337 12.5119 174.368 12.4258C174.398 12.3396 174.403 12.2465 174.382 12.1576C174.352 11.925 174.309 11.6942 174.255 11.466C174.23 11.3953 174.229 11.3187 174.251 11.2472C174.273 11.1757 174.317 11.113 174.377 11.0682C174.594 10.8812 174.796 10.6778 174.981 10.4598C175.033 10.399 175.068 10.3248 175.08 10.2455C175.093 10.1662 175.083 10.085 175.052 10.011C175.021 9.93702 174.97 9.87314 174.904 9.82657C174.839 9.77999 174.762 9.75256 174.682 9.74736C174.395 9.70056 174.106 9.66416 173.818 9.62516C173.773 9.62238 173.73 9.60729 173.694 9.58157C173.658 9.55585 173.629 9.52052 173.612 9.47956C173.503 9.24036 173.38 9.00896 173.263 8.77496C173.226 8.68664 173.163 8.61126 173.083 8.55812C173.003 8.50499 172.909 8.47643 172.813 8.47596V5.97996C172.942 5.96484 173.069 5.94315 173.196 5.91496C173.466 5.8323 173.708 5.67452 173.893 5.45996L175.73 8.57996L177.729 7.79996L177.885 7.75056C177.916 7.80516 177.95 7.85976 177.976 7.91696C178.1 8.18404 178.309 8.40239 178.57 8.53753C178.832 8.67266 179.131 8.71687 179.421 8.66316Z" fill="#FE9F00"/>
<path d="M172.8 12.22V14.1232H167.822C167.497 12.9931 167.161 11.8603 166.814 10.725C166.611 10.036 166.408 9.34961 166.203 8.66061C166.479 8.70869 166.763 8.66907 167.015 8.54732C167.267 8.42558 167.475 8.22785 167.608 7.98202L167.73 7.74801L169.745 8.52801L169.893 8.58261L170.112 8.21861L171.673 5.56401C171.689 5.53871 171.706 5.5144 171.725 5.49121C171.768 5.51411 171.809 5.5411 171.848 5.57181C172.107 5.82285 172.452 5.96678 172.813 5.97482V8.48381C172.725 8.48326 172.639 8.50732 172.564 8.55327C172.489 8.59922 172.428 8.66523 172.389 8.74381C172.261 9.00381 172.129 9.24301 172.001 9.49521C171.985 9.53385 171.958 9.56696 171.923 9.5905C171.889 9.61405 171.848 9.62701 171.806 9.62781C171.517 9.66161 171.231 9.70581 170.942 9.75001C170.852 9.76119 170.768 9.79863 170.699 9.85763C170.631 9.91662 170.581 9.99454 170.557 10.0816C170.533 10.1686 170.535 10.2608 170.563 10.3466C170.591 10.4324 170.644 10.508 170.715 10.5638C170.918 10.7692 171.134 10.959 171.335 11.1618C171.375 11.2124 171.394 11.2769 171.387 11.3412C171.348 11.6142 171.298 11.8846 171.246 12.155C171.229 12.2145 171.225 12.2769 171.234 12.3382C171.242 12.3994 171.263 12.4583 171.296 12.5109C171.328 12.5635 171.372 12.6087 171.423 12.6437C171.474 12.6787 171.532 12.7026 171.592 12.714C171.71 12.7294 171.829 12.7104 171.936 12.6594C172.233 12.5242 172.522 12.3708 172.813 12.2252L172.8 12.22Z" fill="#FED300"/>
<path d="M172.813 14.1311H177.802C177.802 14.5939 177.802 15.0567 177.802 15.5221C177.801 15.6343 177.755 15.7414 177.675 15.8202C177.595 15.8991 177.487 15.9433 177.375 15.9433C175.853 15.9433 174.333 15.9433 172.811 15.9433V14.1233L172.813 14.1311Z" fill="#FF6737"/>
<path d="M172.813 14.1311V15.9511H170.895H168.342C168.271 15.9611 168.199 15.9545 168.132 15.9319C168.064 15.9093 168.003 15.8713 167.952 15.8208C167.902 15.7704 167.864 15.7089 167.841 15.6413C167.818 15.5737 167.812 15.5017 167.822 15.4311C167.822 14.9995 167.822 14.5653 167.822 14.1311H172.813Z" fill="#FE9F00"/>
<path d="M179.421 8.66328C179.13 8.71659 178.831 8.67161 178.569 8.5355C178.308 8.39938 178.099 8.17991 177.976 7.91187C177.95 7.85467 177.916 7.80008 177.885 7.74548C177.864 7.53732 177.857 7.32797 177.864 7.11888C177.903 6.84555 178.026 6.59097 178.216 6.39025C178.405 6.18954 178.653 6.05259 178.924 5.99828C179.099 5.96567 179.279 5.96785 179.453 6.00469C179.627 6.04153 179.793 6.1123 179.939 6.21298C180.086 6.31366 180.212 6.44226 180.309 6.59145C180.406 6.74064 180.473 6.90749 180.506 7.08247C180.538 7.25746 180.536 7.43716 180.499 7.6113C180.463 7.78545 180.392 7.95063 180.291 8.09742C180.19 8.24422 180.061 8.36974 179.912 8.46683C179.763 8.56392 179.596 8.63067 179.421 8.66328Z" fill="#FE9F00"/>
<path d="M173.893 5.46C173.708 5.67265 173.466 5.82859 173.196 5.9098C173.069 5.93799 172.942 5.95968 172.813 5.9748V3.25C173.042 3.25026 173.268 3.30847 173.469 3.41922C173.67 3.52997 173.839 3.68965 173.962 3.88344C174.085 4.07723 174.156 4.29883 174.17 4.52764C174.184 4.75645 174.14 4.98506 174.041 5.1922C173.994 5.2806 173.942 5.3664 173.893 5.46Z" fill="#FE9F00"/>
<path d="M172.813 3.25V5.98C172.452 5.97197 172.107 5.82804 171.847 5.577C171.809 5.54629 171.768 5.5193 171.725 5.4964C171.709 5.44554 171.689 5.39599 171.665 5.3482C171.56 5.18656 171.491 5.00422 171.463 4.81359C171.435 4.62297 171.449 4.42852 171.502 4.2435C171.556 4.05847 171.649 3.8872 171.775 3.74133C171.901 3.59547 172.057 3.47844 172.233 3.3982C172.42 3.32804 172.615 3.27835 172.813 3.25Z" fill="#FE9F00"/>
<path d="M172.813 8.47607C172.909 8.47654 173.003 8.5051 173.083 8.55824C173.163 8.61137 173.226 8.68675 173.263 8.77507C173.38 9.00907 173.503 9.24047 173.612 9.47967C173.629 9.52064 173.658 9.55597 173.694 9.58169C173.73 9.6074 173.773 9.62249 173.818 9.62527C174.106 9.66427 174.395 9.70067 174.682 9.74747C174.762 9.75267 174.839 9.78011 174.904 9.82668C174.97 9.87326 175.021 9.93713 175.052 10.0111C175.083 10.0851 175.093 10.1663 175.08 10.2456C175.068 10.3249 175.033 10.3991 174.981 10.4599C174.796 10.6779 174.594 10.8813 174.377 11.0683C174.317 11.1131 174.273 11.1758 174.251 11.2473C174.229 11.3188 174.23 11.3954 174.255 11.4661C174.309 11.6943 174.352 11.9251 174.382 12.1577C174.403 12.2466 174.398 12.3397 174.368 12.4259C174.337 12.512 174.283 12.5877 174.21 12.6439C174.137 12.7012 174.047 12.7342 173.954 12.7384C173.861 12.7426 173.768 12.7178 173.69 12.6673C173.401 12.5139 173.107 12.3735 172.813 12.2279V8.47867V8.47607Z" fill="#FF6737"/>
<path d="M172.813 8.47852V12.2199C172.522 12.3655 172.233 12.5189 171.936 12.6541C171.829 12.7052 171.71 12.7241 171.592 12.7087C171.532 12.6974 171.474 12.6734 171.423 12.6384C171.372 12.6035 171.328 12.5582 171.296 12.5056C171.263 12.453 171.242 12.3942 171.233 12.3329C171.225 12.2716 171.229 12.2092 171.246 12.1497C171.298 11.8897 171.348 11.6089 171.387 11.3359C171.394 11.2716 171.375 11.2071 171.335 11.1565C171.134 10.9537 170.918 10.7639 170.715 10.5585C170.644 10.5027 170.591 10.4271 170.563 10.3413C170.535 10.2555 170.533 10.1633 170.557 10.0763C170.581 9.98925 170.631 9.91134 170.699 9.85235C170.768 9.79335 170.852 9.75591 170.942 9.74473C171.231 9.70053 171.517 9.65633 171.806 9.62253C171.848 9.62173 171.889 9.60877 171.923 9.58522C171.958 9.56168 171.985 9.52857 172.001 9.48993C172.126 9.22993 172.261 8.99072 172.389 8.73852C172.428 8.65994 172.489 8.59394 172.564 8.54799C172.639 8.50204 172.725 8.47797 172.813 8.47852Z" fill="#FE9F00"/>
<path d="M82.6631 8.79053H90.1424V18.1713H104.617V25.0093H96.9685L89.5621 21.4291L90.1424 27.7965V38.8933C90.1424 46.4333 97.8664 48.5497 103.987 48.4405V56.3315C94.7903 56.3315 82.6631 54.5557 82.6631 42.3123V8.79053Z" fill="#2164C9"/>
<path fill-rule="evenodd" clip-rule="evenodd" d="M96.3725 31.6289C96.6633 31.6289 96.9476 31.715 97.1893 31.8765C97.4311 32.0379 97.6196 32.2673 97.7309 32.5357C97.8422 32.8042 97.8713 33.0995 97.8146 33.3845C97.7578 33.6695 97.6178 33.9312 97.4122 34.1366C97.2065 34.3421 96.9445 34.482 96.6593 34.5387C96.3741 34.5954 96.0784 34.5663 95.8098 34.4551C95.5411 34.3439 95.3115 34.1556 95.1499 33.914C94.9883 33.6725 94.9021 33.3884 94.9021 33.0979C94.9021 32.7083 95.057 32.3347 95.3328 32.0592C95.6085 31.7837 95.9825 31.6289 96.3725 31.6289Z" fill="#2164C9"/>
<path fill-rule="evenodd" clip-rule="evenodd" d="M106.891 31.6289C107.182 31.6289 107.467 31.715 107.708 31.8765C107.95 32.0379 108.139 32.2673 108.25 32.5357C108.361 32.8042 108.39 33.0995 108.334 33.3845C108.277 33.6695 108.137 33.9312 107.931 34.1366C107.726 34.3421 107.464 34.482 107.178 34.5387C106.893 34.5954 106.597 34.5663 106.329 34.4551C106.06 34.3439 105.83 34.1556 105.669 33.914C105.507 33.6725 105.421 33.3884 105.421 33.0979C105.421 32.7083 105.576 32.3347 105.852 32.0592C106.128 31.7837 106.502 31.6289 106.891 31.6289Z" fill="#2164C9"/>
<path fill-rule="evenodd" clip-rule="evenodd" d="M103.927 40.4404C103.589 40.755 102.873 41.0098 102.038 40.5756C101.65 40.3728 101.744 39.8736 101.749 39.442C101.749 39.442 102.53 38.7608 102.681 38.402C102.884 37.9418 100.159 37.9392 100.411 38.402C100.699 38.8054 101.045 39.163 101.439 39.4628C101.382 39.9828 101.51 40.2896 101.111 40.5236C100.123 41.0176 99.5266 40.7836 99.157 40.4326C98.5507 39.871 98.4856 38.7998 98.3581 38.7998C98.2852 38.7998 98.254 38.9922 98.254 38.9922C98.2163 39.387 98.2931 39.7843 98.4754 40.1365C98.6577 40.4888 98.9377 40.7811 99.2819 40.9786C100.018 41.3712 101.075 41.2698 101.533 40.5756C101.986 41.2646 103.058 41.3712 103.789 40.9864C104.137 40.7904 104.421 40.4976 104.606 40.1436C104.791 39.7896 104.869 39.3896 104.83 38.9922C104.83 38.9922 104.799 38.7998 104.726 38.7998C104.599 38.7998 104.534 39.871 103.925 40.4326" fill="#2164C9"/>
<path fill-rule="evenodd" clip-rule="evenodd" d="M87.1287 36.1972L95.9379 37.7052C95.9901 37.7147 96.0364 37.7443 96.0671 37.7875C96.0977 37.8308 96.1102 37.8843 96.1019 37.9366C96.0975 37.9626 96.088 37.9874 96.0739 38.0097C96.0599 38.032 96.0416 38.0513 96.0201 38.0665C95.9986 38.0817 95.9743 38.0926 95.9485 38.0984C95.9228 38.1042 95.8962 38.1049 95.8702 38.1004L87.0611 36.5924C87.0349 36.5883 87.0099 36.579 86.9874 36.5651C86.9649 36.5512 86.9454 36.5329 86.9301 36.5113C86.9149 36.4897 86.9041 36.4653 86.8984 36.4395C86.8927 36.4137 86.8923 36.387 86.8971 36.361C86.9012 36.3349 86.9105 36.3098 86.9244 36.2874C86.9384 36.2649 86.9567 36.2455 86.9783 36.2302C86.9999 36.2149 87.0243 36.2041 87.0502 36.1984C87.076 36.1928 87.1027 36.1923 87.1287 36.1972Z" fill="#2164C9"/>
<path fill-rule="evenodd" clip-rule="evenodd" d="M86.4597 38.3501L95.3938 38.6101C95.4204 38.6108 95.4465 38.6167 95.4707 38.6276C95.495 38.6384 95.5168 38.654 95.5349 38.6733C95.5531 38.6927 95.5672 38.7154 95.5765 38.7403C95.5858 38.7651 95.59 38.7916 95.589 38.8181C95.587 38.871 95.5643 38.921 95.5259 38.9574C95.4875 38.9938 95.4364 39.0138 95.3834 39.0131L86.4493 38.7531C86.3998 38.7475 86.3541 38.7238 86.3208 38.6867C86.2876 38.6495 86.2693 38.6014 86.2693 38.5516C86.2693 38.5018 86.2876 38.4537 86.3208 38.4165C86.3541 38.3794 86.3998 38.3557 86.4493 38.3501H86.4597Z" fill="#2164C9"/>
<path fill-rule="evenodd" clip-rule="evenodd" d="M87.0455 40.7082L95.8936 39.4914C95.9464 39.4841 96 39.4981 96.0424 39.5303C96.0849 39.5625 96.1128 39.6102 96.1201 39.663C96.1273 39.7157 96.1133 39.7692 96.0811 39.8116C96.0489 39.854 96.0011 39.8819 95.9483 39.8892L87.1001 41.106C87.074 41.1095 87.0474 41.108 87.0218 41.1013C86.9963 41.0946 86.9724 41.0829 86.9513 41.067C86.9303 41.0511 86.9126 41.0312 86.8993 41.0084C86.886 40.9856 86.8773 40.9605 86.8737 40.9344C86.8701 40.9082 86.8717 40.8817 86.8784 40.8562C86.8851 40.8307 86.8967 40.8067 86.9127 40.7857C86.9286 40.7647 86.9486 40.7471 86.9713 40.7337C86.9941 40.7204 87.0193 40.7118 87.0455 40.7082Z" fill="#2164C9"/>
<path fill-rule="evenodd" clip-rule="evenodd" d="M87.1287 36.1973L90.1423 36.7173V37.1255L87.0611 36.6055C87.0349 36.6014 87.0099 36.5921 86.9874 36.5782C86.9649 36.5643 86.9454 36.546 86.9301 36.5244C86.9149 36.5028 86.9041 36.4784 86.8984 36.4526C86.8927 36.4268 86.8923 36.4001 86.8971 36.3741C86.9012 36.348 86.9105 36.3229 86.9244 36.3004C86.9384 36.278 86.9567 36.2585 86.9783 36.2433C86.9999 36.228 87.0243 36.2172 87.0502 36.2115C87.076 36.2059 87.1027 36.2054 87.1287 36.2103" fill="#2164C9"/>
<path fill-rule="evenodd" clip-rule="evenodd" d="M86.4597 38.3501L90.1474 38.4567V38.8597L86.4493 38.7531C86.3998 38.7475 86.3541 38.7238 86.3208 38.6867C86.2876 38.6495 86.2693 38.6014 86.2693 38.5516C86.2693 38.5018 86.2876 38.4537 86.3208 38.4165C86.3541 38.3794 86.3998 38.3557 86.4493 38.3501" fill="#2164C9"/>
<path fill-rule="evenodd" clip-rule="evenodd" d="M87.0455 40.7082L90.2412 40.2688C90.2568 40.3988 90.275 40.5288 90.2985 40.6666L87.1001 41.106C87.074 41.1096 87.0474 41.108 87.0218 41.1013C86.9963 41.0946 86.9724 41.083 86.9513 41.067C86.9303 41.0511 86.9126 41.0312 86.8993 41.0084C86.886 40.9857 86.8773 40.9605 86.8737 40.9344C86.8701 40.9083 86.8717 40.8817 86.8784 40.8562C86.8851 40.8307 86.8967 40.8068 86.9127 40.7858C86.9286 40.7647 86.9486 40.7471 86.9713 40.7338C86.9941 40.7205 87.0193 40.7118 87.0455 40.7082Z" fill="#2164C9"/>
<path d="M82.2362 38.5917C82.4002 38.7269 82.2362 39.5693 82.2362 39.7799C82.1533 41.4318 81.8639 43.0669 81.3748 44.6471C80.8507 46.1717 80.072 47.5967 79.0717 48.8617C78.8739 49.1217 78.6683 49.3817 78.4575 49.6417C77.338 50.9595 76.0581 52.1325 74.6476 53.1335C71.9775 55.0679 68.7636 55.9935 65.5105 56.3055C62.1044 56.6596 58.6621 56.2547 55.4314 55.1199C53.0858 54.2571 50.9423 52.9226 49.1336 51.1991C47.2916 49.4933 45.8348 47.4148 44.8604 45.1021C43.901 42.7182 43.4251 40.1676 43.4603 37.5985C43.4603 34.6986 43.8489 32.135 44.6262 29.9077C45.3564 27.7593 46.5505 25.7977 48.1238 24.1617C49.5784 22.637 51.2236 21.3061 53.019 20.2019C54.6851 19.1817 56.496 18.4191 58.3903 17.9399C58.5959 17.8905 58.7911 17.8515 58.9707 17.8255C59.1669 17.7968 59.3615 17.7577 59.5536 17.7085C59.7495 17.7093 59.9451 17.6963 60.1392 17.6695C60.3187 17.6435 60.5139 17.6045 60.7221 17.5551C61.1359 17.5005 61.5393 17.4615 61.9244 17.4381C62.3096 17.4147 62.6895 17.3991 63.0539 17.3991C65.0706 17.3826 67.0774 17.6835 69.0004 18.2909C70.8391 18.8847 72.5612 19.7916 74.0907 20.9715C75.5813 22.1503 76.9484 23.477 78.1713 24.9313C79.3892 26.381 80.4695 27.9408 81.3982 29.5905L55.6682 43.4979L52.6364 38.0639L70.9808 27.6639C70.8719 27.6093 70.7683 27.5449 70.6711 27.4715C70.5482 27.3726 70.4427 27.254 70.3588 27.1205C70.2573 27.0165 70.1376 26.8891 70.0101 26.7331C69.8826 26.5771 69.7499 26.4237 69.5833 26.2677C69.4272 26.1637 69.258 26.0467 69.0758 25.9167C68.8954 25.7896 68.7265 25.6469 68.571 25.4903C68.3654 25.3889 68.1572 25.2693 67.949 25.1393C67.7268 25.0036 67.4935 24.887 67.2516 24.7909C66.6762 24.5165 66.0616 24.3332 65.4299 24.2475C64.6443 24.14 63.852 24.0887 63.0591 24.0941C61.2252 24.0544 59.4058 24.4257 57.7345 25.1809C56.2003 25.8986 54.8714 26.9903 53.87 28.3555C52.8582 29.6945 52.0675 31.1867 51.5278 32.7755C51.0087 34.3278 50.745 35.954 50.7471 37.5907V37.8247C50.7446 38.5635 50.8126 39.3009 50.9501 40.0269C51.0856 40.7469 51.2904 41.4522 51.5616 42.1329C52.1383 43.5582 52.9386 44.8826 53.9324 46.0563C56.7482 49.3999 61.5288 50.0265 65.5808 49.1529C67.7953 48.6765 69.8757 47.7128 71.6704 46.3319C73.1957 45.1355 74.2959 43.4812 74.8089 41.6129C75.1068 40.533 75.2582 39.418 75.2592 38.2979V38.2199L79.423 38.4617H79.5323L81.5206 38.5579C81.6455 38.5631 82.1243 38.5059 82.2362 38.5917Z" fill="#2164C9"/>
<path d="M36.3061 30.94L36.9931 32.1906C36.9931 32.1906 38.0575 30.5032 36.3061 30.94ZM3.43505 73.19V37.1306C3.39563 34.6566 3.75502 32.1923 4.49944 29.8324C5.15672 27.7953 6.24786 25.9246 7.6978 24.349C9.02206 22.9058 10.5213 21.6332 12.1609 20.5608C13.6947 19.5723 15.3589 18.8022 17.1055 18.2728C17.5722 18.1179 18.0464 17.9868 18.5264 17.8802C18.9953 17.7749 19.4696 17.6959 19.9473 17.6436C20.2076 17.589 20.447 17.55 20.6578 17.524C20.8936 17.4966 21.1309 17.4836 21.3683 17.485C21.5881 17.432 21.8135 17.4058 22.0397 17.407H22.7111C25.5009 17.407 27.9489 17.7355 30.0551 18.3924C32.0522 18.9863 33.8886 20.0246 35.4265 21.4292C36.7903 22.6795 38.0209 24.0675 39.0985 25.571C40.0999 26.959 40.8893 28.4881 41.4406 30.108C41.6506 30.7407 41.8353 31.3725 41.995 32.0034C42.1516 32.6247 42.2569 33.2577 42.3098 33.8962C42.4174 34.5272 42.4964 35.1191 42.5467 35.672C42.6013 36.2232 42.6273 36.764 42.6273 37.2892C42.6273 37.8144 42.6013 38.3812 42.5467 38.9844C42.492 39.5876 42.4165 40.209 42.3098 40.8408C42.2568 41.4793 42.1515 42.1123 41.995 42.7336C41.3548 45.2868 40.4335 47.2134 38.5962 49.1894C32.4727 55.809 19.7522 56.7502 12.7725 52.923V47.073C13.0614 47.2446 16.1895 44.4288 20.5615 43.264C25.9615 41.8262 32.582 41.964 34.8279 37.6376C35.7466 35.8644 37.1701 33.345 36.5169 31.7408C35.8325 30.0716 30.7916 30.6488 27.5724 29.302C26.7188 28.9458 25.5946 26.9802 25.1938 26.5564C23.0364 24.2554 15.8538 26.754 16.7047 27.8564C17.5557 28.9588 23.1613 32.162 23.0156 37.336C22.8699 42.51 16.8297 41.938 14.8154 38.636C13.4257 36.3558 12.6216 33.7324 11.9918 31.07C11.5198 31.8878 11.1518 32.7612 10.8962 33.67C10.4807 35.2673 10.282 36.9131 10.3054 38.5632V73.19H3.43505Z" fill="#2164C9"/>
<path fill-rule="evenodd" clip-rule="evenodd" d="M22.8102 28.7664C23.0331 28.7664 23.2509 28.8324 23.4362 28.9561C23.6215 29.0798 23.766 29.2556 23.8513 29.4613C23.9366 29.667 23.9589 29.8934 23.9154 30.1118C23.8719 30.3302 23.7646 30.5308 23.607 30.6882C23.4494 30.8457 23.2486 30.9529 23.03 30.9963C22.8114 31.0398 22.5849 31.0175 22.379 30.9323C22.1731 30.8471 21.9971 30.7028 21.8733 30.5176C21.7494 30.3325 21.6834 30.1148 21.6834 29.8922C21.683 29.7442 21.7119 29.5977 21.7684 29.4609C21.8249 29.3242 21.9079 29.1999 22.0126 29.0953C22.1173 28.9907 22.2417 28.9078 22.3786 28.8514C22.5154 28.7949 22.6621 28.766 22.8102 28.7664Z" fill="#2164C9"/>
</svg>
